<?xml version="1.0" encoding="UTF-8"?>
<svg width="200px" height="39px" viewBox="0 0 200 39" version="1.1" xmlns="http://www.w3.org/2000/svg" xmlns:xlink="http://www.w3.org/1999/xlink">
    <title>dark</title>
    <defs>
        <rect id="path-1" x="0" y="0" width="39.2036753" height="39.2036753" rx="19.6018377"></rect>
    </defs>
    <g id="dark" stroke="none" stroke-width="1" fill="none" fill-rule="evenodd">
        <g id="512备份-3">
            <mask id="mask-2" fill="white">
                <use xlink:href="#path-1"></use>
            </mask>
            <use id="矩形" fill="#FE405B" xlink:href="#path-1"></use>
            <g id="编组-3" mask="url(#mask-2)">
                <g transform="translate(1.5544, 4.7473)">
                    <path d="M12.9366996,5.53888829 L4.71262139,11.4740254 C4.43829281,11.6720024 4.37639756,12.0548816 4.57437449,12.3292102 C4.68952556,12.4887704 4.87431834,12.5832987 5.07109033,12.5832987 L14.7125734,12.5832987 L14.7125734,12.5832987 L12.9366996,5.53888829 Z" id="路径-2" fill="#F1C39D"></path>
                    <path d="M20.1148344,0 C24.6396788,0 28.30779,3.66811116 28.30779,8.19295559 L28.30779,23.7366003 C28.30779,30.4181463 22.8913268,35.8346095 16.2097808,35.8346095 L11.9218788,35.8346095 L11.9218788,35.8346095 L11.9218788,8.19295559 C11.9218788,3.66811116 15.58999,0 20.1148344,0 Z" id="矩形" fill="#000000"></path>
                    <circle id="椭圆形" fill="#FFFFFF" cx="19.731986" cy="7.8101072" r="1.99081164"></circle>
                    <polygon id="路径" fill="#000000" points="0 23.4929901 13.6731298 13.8814438 15.1503675 38.037086 1.48901012 30.1519046"></polygon>
                </g>
            </g>
        </g>
        <text id="CrowMesh" font-family="HelveticaNeue-Medium, Helvetica Neue" font-size="29.5276781" font-weight="400" fill="#FFFFFF">
            <tspan x="42.7258806" y="30.9908116">CrowMesh</tspan>
        </text>
    </g>
</svg>